{
  "accessors": [
    {
      "bufferView": 2,
      "componentType": 5126,
      "count": 24935,
      "max": [
        0.8807089328765869,
        0.8798969984054565,
        1.1728273630142212
      ],
      "min": [
        -0.8798969984054565,
        -0.8807043433189392,
        -0.016437169164419174
      ],
      "type": "VEC3"
    },
    {
      "bufferView": 2,
      "byteOffset": 299220,
      "componentType": 5126,
      "count": 24935,
      "max": [
        0.9841480851173401,
        0.9867051243782043,
        1.0
      ],
      "min": [
        -0.9811666011810303,
        -0.9999918341636658,
        -0.9985367655754089
      ],
      "type": "VEC3"
    },
    {
      "bufferView": 3,
      "componentType": 5126,
      "count": 24935,
      "max": [
        0.9999940395355225,
        0.9999997019767761,
        0.9984286427497864,
        1.0
      ],
      "min": [
        -1.0,
        -0.9999998807907104,
        -0.9999839663505554,
        -1.0
      ],
      "type": "VEC4"
    },
    {
      "bufferView": 1,
      "componentType": 5126,
      "count": 24935,
      "max": [
        0.9854349493980408,
        0.9990234375
      ],
      "min": [
        0.0009765625,
        0.0009765625
      ],
      "type": "VEC2"
    },
    {
      "bufferView": 0,
      "componentType": 5125,
      "count": 107640,
      "type": "SCALAR"
    }
  ],
  "asset": {
    "extras": {
      "author": "Blarb (https://sketchfab.com/Blarb)",
      "license": "CC-BY-4.0 (http://creativecommons.org/licenses/by/4.0/)",
      "source": "https://sketchfab.com/3d-models/camping-tent-3f624d58d582430595179bdf9a156be3",
      "title": "Camping tent"
    },
    "generator": "Sketchfab-12.67.0",
    "version": "2.0"
  },
  "bufferViews": [
    {
      "buffer": 0,
      "byteLength": 430560,
      "name": "floatBufferViews",
      "target": 34963
    },
    {
      "buffer": 0,
      "byteLength": 199480,
      "byteOffset": 430560,
      "byteStride": 8,
      "name": "floatBufferViews",
      "target": 34962
    },
    {
      "buffer": 0,
      "byteLength": 598440,
      "byteOffset": 630040,
      "byteStride": 12,
      "name": "floatBufferViews",
      "target": 34962
    },
    {
      "buffer": 0,
      "byteLength": 398960,
      "byteOffset": 1228480,
      "byteStride": 16,
      "name": "floatBufferViews",
      "target": 34962
    }
  ],
  "buffers": [
    {
      "byteLength": 1627440,
      "uri": "scene.bin"
    }
  ],
  "images": [
    {
      "uri": "textures/Tent_baseColor.png"
    },
    {
      "uri": "textures/Tent_metallicRoughness.png"
    },
    {
      "uri": "textures/Tent_normal.png"
    }
  ],
  "materials": [
    {
      "doubleSided": true,
      "name": "Tent",
      "normalTexture": {
        "index": 2
      },
      "occlusionTexture": {
        "index": 1
      },
      "pbrMetallicRoughness": {
        "baseColorTexture": {
          "index": 0
        },
        "metallicFactor": 0.0,
        "metallicRoughnessTexture": {
          "index": 1
        }
      }
    }
  ],
  "meshes": [
    {
      "name": "tent.001_Tent_0",
      "primitives": [
        {
          "attributes": {
            "NORMAL": 1,
            "POSITION": 0,
            "TANGENT": 2,
            "TEXCOORD_0": 3
          },
          "indices": 4,
          "material": 0,
          "mode": 4
        }
      ]
    }
  ],
  "nodes": [
    {
      "children": [
        1
      ],
      "matrix": [
        1.0,
        0.0,
        0.0,
        0.0,
        0.0,
        2.220446049250313e-16,
        -1.0,
        0.0,
        0.0,
        1.0,
        2.220446049250313e-16,
        0.0,
        0.0,
        0.0,
        0.0,
        1.0
      ],
      "name": "Sketchfab_model"
    },
    {
      "children": [
        2
      ],
      "matrix": [
        0.009999999776482582,
        0.0,
        0.0,
        0.0,
        0.0,
        0.0,
        0.009999999776482582,
        0.0,
        0.0,
        -0.009999999776482582,
        0.0,
        0.0,
        0.0,
        0.0,
        0.0,
        1.0
      ],
      "name": "98579c17844444e4b324fd98bcb3910b.fbx"
    },
    {
      "children": [
        3
      ],
      "name": "RootNode"
    },
    {
      "children": [
        4
      ],
      "matrix": [
        100.0,
        0.0,
        0.0,
        0.0,
        0.0,
        -1.629206793918314e-05,
        -99.99999999999868,
        0.0,
        0.0,
        99.99999999999868,
        -1.629206793918314e-05,
        0.0,
        0.0,
        0.0,
        0.0,
        1.0
      ],
      "name": "tent.001"
    },
    {
      "mesh": 0,
      "name": "tent.001_Tent_0"
    }
  ],
  "samplers": [
    {
      "magFilter": 9729,
      "minFilter": 9987,
      "wrapS": 10497,
      "wrapT": 10497
    }
  ],
  "scene": 0,
  "scenes": [
    {
      "name": "Sketchfab_Scene",
      "nodes": [
        0
      ]
    }
  ],
  "textures": [
    {
      "sampler": 0,
      "source": 0
    },
    {
      "sampler": 0,
      "source": 1
    },
    {
      "sampler": 0,
      "source": 2
    }
  ]
}
