{
  "accessors": [
    {
      "bufferView": 2,
      "componentType": 5126,
      "count": 4686,
      "max": [
        1.2199554443359375,
        0.2217784970998764,
        0.8507962226867676
      ],
      "min": [
        -1.2202903032302856,
        -0.012035004794597626,
        -0.8507962226867676
      ],
      "type": "VEC3"
    },
    {
      "bufferView": 2,
      "byteOffset": 56232,
      "componentType": 5126,
      "count": 4686,
      "max": [
        0.9995851516723633,
        0.999996542930603,
        0.9997659921646118
      ],
      "min": [
        -0.9993624687194824,
        -0.9999998211860657,
        -0.9959344267845154
      ],
      "type": "VEC3"
    },
    {
      "bufferView": 3,
      "componentType": 5126,
      "count": 4686,
      "max": [
        0.9999988079071045,
        0.999740719795227,
        0.9809123873710632,
        1.0
      ],
      "min": [
        -0.9273076057434082,
        -0.999984622001648,
        -0.9999909996986389,
        -1.0
      ],
      "type": "VEC4"
    },
    {
      "bufferView": 1,
      "componentType": 5126,
      "count": 4686,
      "max": [
        0.9943596124649048,
        0.9944490790367126
      ],
      "min": [
        0.007846259512007236,
        0.007551729679107666
      ],
      "type": "VEC2"
    },
    {
      "bufferView": 1,
      "byteOffset": 37488,
      "componentType": 5126,
      "count": 4686,
      "max": [
        0.9943596124649048,
        0.9944490790367126
      ],
      "min": [
        0.007846259512007236,
        0.007551729679107666
      ],
      "type": "VEC2"
    },
    {
      "bufferView": 1,
      "byteOffset": 74976,
      "componentType": 5126,
      "count": 4686,
      "max": [
        0.9943596124649048,
        0.9944490790367126
      ],
      "min": [
        0.007846259512007236,
        0.007551729679107666
      ],
      "type": "VEC2"
    },
    {
      "bufferView": 1,
      "byteOffset": 112464,
      "componentType": 5126,
      "count": 4686,
      "max": [
        0.9943596124649048,
        0.9944490790367126
      ],
      "min": [
        0.007846259512007236,
        0.007551729679107666
      ],
      "type": "VEC2"
    },
    {
      "bufferView": 1,
      "byteOffset": 149952,
      "componentType": 5126,
      "count": 4686,
      "max": [
        0.9943596124649048,
        0.9944490790367126
      ],
      "min": [
        0.007846259512007236,
        0.007551729679107666
      ],
      "type": "VEC2"
    },
    {
      "bufferView": 0,
      "componentType": 5125,
      "count": 25506,
      "type": "SCALAR"
    }
  ],
  "asset": {
    "extras": {
      "author": "Ervinas (https://sketchfab.com/paulauskaservinas2018)",
      "license": "CC-BY-4.0 (http://creativecommons.org/licenses/by/4.0/)",
      "source": "https://sketchfab.com/3d-models/slice-of-pizza-b8c251d79e104922bc0497a5d2fdf822",
      "title": "Slice Of Pizza"
    },
    "generator": "Sketchfab-12.68.0",
    "version": "2.0"
  },
  "bufferViews": [
    {
      "buffer": 0,
      "byteLength": 102024,
      "name": "floatBufferViews",
      "target": 34963
    },
    {
      "buffer": 0,
      "byteLength": 187440,
      "byteOffset": 102024,
      "byteStride": 8,
      "name": "floatBufferViews",
      "target": 34962
    },
    {
      "buffer": 0,
      "byteLength": 112464,
      "byteOffset": 289464,
      "byteStride": 12,
      "name": "floatBufferViews",
      "target": 34962
    },
    {
      "buffer": 0,
      "byteLength": 74976,
      "byteOffset": 401928,
      "byteStride": 16,
      "name": "floatBufferViews",
      "target": 34962
    }
  ],
  "buffers": [
    {
      "byteLength": 476904,
      "uri": "scene.bin"
    }
  ],
  "extensionsRequired": [
    "KHR_materials_pbrSpecularGlossiness"
  ],
  "extensionsUsed": [
    "KHR_materials_pbrSpecularGlossiness"
  ],
  "images": [
    {
      "uri": "textures/material_0_diffuse.png"
    },
    {
      "uri": "textures/material_0_specularGlossiness.png"
    },
    {
      "uri": "textures/material_0_normal.png"
    },
    {
      "uri": "textures/material_0_occlusion.png"
    }
  ],
  "materials": [
    {
      "doubleSided": true,
      "extensions": {
        "KHR_materials_pbrSpecularGlossiness": {
          "diffuseFactor": [
            1.0,
            1.0,
            1.0,
            1.0
          ],
          "diffuseTexture": {
            "index": 0
          },
          "glossinessFactor": 1.0,
          "specularFactor": [
            1.0,
            1.0,
            1.0
          ],
          "specularGlossinessTexture": {
            "index": 1
          }
        }
      },
      "name": "material_0",
      "normalTexture": {
        "index": 2
      },
      "occlusionTexture": {
        "index": 3
      }
    }
  ],
  "meshes": [
    {
      "name": "Object_0",
      "primitives": [
        {
          "attributes": {
            "NORMAL": 1,
            "POSITION": 0,
            "TANGENT": 2,
            "TEXCOORD_0": 3,
            "TEXCOORD_1": 4,
            "TEXCOORD_2": 5,
            "TEXCOORD_3": 6,
            "TEXCOORD_4": 7
          },
          "indices": 8,
          "material": 0,
          "mode": 4
        }
      ]
    }
  ],
  "nodes": [
    {
      "children": [
        1
      ],
      "matrix": [
        1.0,
        0.0,
        0.0,
        0.0,
        0.0,
        2.220446049250313e-16,
        -1.0,
        0.0,
        0.0,
        1.0,
        2.220446049250313e-16,
        0.0,
        0.0,
        0.0,
        0.0,
        1.0
      ],
      "name": "Sketchfab_model"
    },
    {
      "children": [
        2
      ],
      "name": "root"
    },
    {
      "children": [
        3
      ],
      "matrix": [
        1.0,
        0.0,
        0.0,
        0.0,
        0.0,
        2.220446049250313e-16,
        1.0,
        0.0,
        0.0,
        -1.0,
        2.220446049250313e-16,
        0.0,
        0.0,
        0.0,
        0.0,
        1.0
      ],
      "name": "GLTF_SceneRootNode"
    },
    {
      "children": [
        4
      ],
      "matrix": [
        0.009999999776482582,
        0.0,
        0.0,
        0.0,
        0.0,
        0.009999999776482582,
        0.0,
        0.0,
        0.0,
        0.0,
        0.009999999776482582,
        0.0,
        0.0,
        0.0,
        0.0,
        1.0
      ],
      "name": "RootNode.0_0"
    },
    {
      "children": [
        5
      ],
      "name": "slice_of_pizza.1_1"
    },
    {
      "mesh": 0,
      "name": "Object_5"
    }
  ],
  "samplers": [
    {
      "magFilter": 9729,
      "minFilter": 9987,
      "wrapS": 10497,
      "wrapT": 10497
    }
  ],
  "scene": 0,
  "scenes": [
    {
      "name": "Sketchfab_Scene",
      "nodes": [
        0
      ]
    }
  ],
  "textures": [
    {
      "sampler": 0,
      "source": 0
    },
    {
      "sampler": 0,
      "source": 1
    },
    {
      "sampler": 0,
      "source": 2
    },
    {
      "sampler": 0,
      "source": 3
    }
  ]
}
