{
  "accessors": [
    {
      "bufferView": 2,
      "componentType": 5126,
      "count": 320,
      "max": [
        91.15399932861328,
        64.0320816040039,
        301.2300109863281
      ],
      "min": [
        -92.73490142822266,
        -66.00003814697266,
        -7.999999979801942e-06
      ],
      "type": "VEC3"
    },
    {
      "bufferView": 2,
      "byteOffset": 3840,
      "componentType": 5126,
      "count": 320,
      "max": [
        1.0,
        1.0,
        1.0
      ],
      "min": [
        -1.0,
        -1.0,
        -1.0
      ],
      "type": "VEC3"
    },
    {
      "bufferView": 1,
      "componentType": 5126,
      "count": 320,
      "max": [
        1.0044620037078857,
        1.0073950290679932
      ],
      "min": [
        -0.009806999936699867,
        -0.005847000051289797
      ],
      "type": "VEC2"
    },
    {
      "bufferView": 0,
      "componentType": 5125,
      "count": 546,
      "type": "SCALAR"
    },
    {
      "bufferView": 2,
      "byteOffset": 7680,
      "componentType": 5126,
      "count": 80,
      "max": [
        73.69999694824219,
        45.5999641418457,
        320.0
      ],
      "min": [
        33.70000076293945,
        5.59996223449707,
        300.0
      ],
      "type": "VEC3"
    },
    {
      "bufferView": 2,
      "byteOffset": 8640,
      "componentType": 5126,
      "count": 80,
      "max": [
        0.8639276027679443,
        0.8639710545539856,
        0.967913031578064
      ],
      "min": [
        -0.8639276027679443,
        -0.8639710545539856,
        -0.967913031578064
      ],
      "type": "VEC3"
    },
    {
      "bufferView": 0,
      "byteOffset": 2184,
      "componentType": 5125,
      "count": 468,
      "type": "SCALAR"
    }
  ],
  "asset": {
    "extras": {
      "author": "Moulpe (https://sketchfab.com/moulpe)",
      "license": "CC-BY-4.0 (http://creativecommons.org/licenses/by/4.0/)",
      "source": "https://sketchfab.com/3d-models/milk-carton-9edd25ac5d2f447eb93464efb0e2e82e",
      "title": "MILK CARTON"
    },
    "generator": "Sketchfab-12.68.0",
    "version": "2.0"
  },
  "bufferViews": [
    {
      "buffer": 0,
      "byteLength": 4056,
      "name": "floatBufferViews",
      "target": 34963
    },
    {
      "buffer": 0,
      "byteLength": 2560,
      "byteOffset": 4056,
      "byteStride": 8,
      "name": "floatBufferViews",
      "target": 34962
    },
    {
      "buffer": 0,
      "byteLength": 9600,
      "byteOffset": 6616,
      "byteStride": 12,
      "name": "floatBufferViews",
      "target": 34962
    }
  ],
  "buffers": [
    {
      "byteLength": 16216,
      "uri": "scene.bin"
    }
  ],
  "images": [
    {
      "uri": "textures/color_16448250_baseColor.png"
    }
  ],
  "materials": [
    {
      "doubleSided": true,
      "name": "color_16448250",
      "pbrMetallicRoughness": {
        "baseColorTexture": {
          "index": 0
        },
        "metallicFactor": 0.0,
        "roughnessFactor": 0.8063508326896291
      }
    },
    {
      "doubleSided": true,
      "name": "color_40919",
      "pbrMetallicRoughness": {
        "baseColorFactor": [
          0.003219,
          0.36542,
          0.843138,
          1.0
        ],
        "metallicFactor": 0.0
      }
    }
  ],
  "meshes": [
    {
      "name": "Object_0",
      "primitives": [
        {
          "attributes": {
            "NORMAL": 1,
            "POSITION": 0,
            "TEXCOORD_0": 2
          },
          "indices": 3,
          "material": 0,
          "mode": 4
        }
      ]
    },
    {
      "name": "Object_1",
      "primitives": [
        {
          "attributes": {
            "NORMAL": 5,
            "POSITION": 4
          },
          "indices": 6,
          "material": 1,
          "mode": 4
        }
      ]
    }
  ],
  "nodes": [
    {
      "children": [
        1
      ],
      "matrix": [
        1.0,
        0.0,
        0.0,
        0.0,
        0.0,
        2.220446049250313e-16,
        -1.0,
        0.0,
        0.0,
        1.0,
        2.220446049250313e-16,
        0.0,
        0.0,
        0.0,
        0.0,
        1.0
      ],
      "name": "Sketchfab_model"
    },
    {
      "children": [
        2,
        3
      ],
      "name": "MILK.obj.cleaner.materialmerger.gles"
    },
    {
      "mesh": 0,
      "name": "Object_2"
    },
    {
      "mesh": 1,
      "name": "Object_3"
    }
  ],
  "samplers": [
    {
      "magFilter": 9729,
      "minFilter": 9987,
      "wrapS": 10497,
      "wrapT": 10497
    }
  ],
  "scene": 0,
  "scenes": [
    {
      "name": "Sketchfab_Scene",
      "nodes": [
        0
      ]
    }
  ],
  "textures": [
    {
      "sampler": 0,
      "source": 0
    }
  ]
}
