{
  "accessors": [
    {
      "bufferView": 1,
      "componentType": 5126,
      "count": 13044,
      "max": [
        821.9505004882813,
        457.0343322753906,
        102.98833465576172
      ],
      "min": [
        615.9717407226563,
        95.81387329101563,
        -102.9822998046875
      ],
      "type": "VEC3"
    },
    {
      "bufferView": 1,
      "byteOffset": 156528,
      "componentType": 5126,
      "count": 13044,
      "max": [
        0.9999181032180786,
        0.9942618012428284,
        0.9999590516090393
      ],
      "min": [
        -0.9999619722366333,
        -1.0,
        -0.9998607039451599
      ],
      "type": "VEC3"
    },
    {
      "bufferView": 2,
      "componentType": 5126,
      "count": 13044,
      "max": [
        0.9686274528503418,
        0.41960784792900085,
        0.5176470875740051,
        1.0
      ],
      "min": [
        0.9686274528503418,
        0.41960784792900085,
        0.5176470875740051,
        1.0
      ],
      "type": "VEC4"
    },
    {
      "bufferView": 0,
      "componentType": 5125,
      "count": 76527,
      "type": "SCALAR"
    }
  ],
  "asset": {
    "extras": {
      "author": "3dworld. (https://sketchfab.com/3dworld.)",
      "license": "CC-BY-4.0 (http://creativecommons.org/licenses/by/4.0/)",
      "source": "https://sketchfab.com/3d-models/flower-vase-28bb7849a42f407681a8d5d880a7a35c",
      "title": "Flower Vase"
    },
    "generator": "Sketchfab-15.47.0",
    "version": "2.0"
  },
  "bufferViews": [
    {
      "buffer": 0,
      "byteLength": 306108,
      "name": "floatBufferViews",
      "target": 34963
    },
    {
      "buffer": 0,
      "byteLength": 313056,
      "byteOffset": 306108,
      "byteStride": 12,
      "name": "floatBufferViews",
      "target": 34962
    },
    {
      "buffer": 0,
      "byteLength": 208704,
      "byteOffset": 619164,
      "byteStride": 16,
      "name": "floatBufferViews",
      "target": 34962
    }
  ],
  "buffers": [
    {
      "byteLength": 827868,
      "uri": "scene.bin"
    }
  ],
  "extensionsUsed": [
    "KHR_materials_specular"
  ],
  "materials": [
    {
      "doubleSided": true,
      "extensions": {
        "KHR_materials_specular": {
          "specularColorFactor": [
            1.0,
            1.0,
            1.0
          ],
          "specularFactor": 1.0
        }
      },
      "name": "Scene_-_Root",
      "pbrMetallicRoughness": {
        "baseColorFactor": [
          0.25530267865508083,
          0.007755130601671588,
          0.7742154900517375,
          1.0
        ],
        "metallicFactor": 0.8195526435704571,
        "roughnessFactor": 0.16222832726087721
      }
    }
  ],
  "meshes": [
    {
      "name": "Object_0",
      "primitives": [
        {
          "attributes": {
            "COLOR_0": 2,
            "NORMAL": 1,
            "POSITION": 0
          },
          "indices": 3,
          "material": 0,
          "mode": 4
        }
      ]
    }
  ],
  "nodes": [
    {
      "children": [
        1
      ],
      "matrix": [
        1.0,
        0.0,
        0.0,
        0.0,
        0.0,
        2.220446049250313e-16,
        -1.0,
        0.0,
        0.0,
        1.0,
        2.220446049250313e-16,
        0.0,
        0.0,
        0.0,
        0.0,
        1.0
      ],
      "name": "Sketchfab_model"
    },
    {
      "children": [
        2
      ],
      "name": "Flower Vase.stl.cleaner.materialmerger.gles"
    },
    {
      "mesh": 0,
      "name": "Object_2"
    }
  ],
  "scene": 0,
  "scenes": [
    {
      "name": "Sketchfab_Scene",
      "nodes": [
        0
      ]
    }
  ]
}
