{
  "accessors": [
    {
      "bufferView": 2,
      "componentType": 5126,
      "count": 17883,
      "max": [
        0.04275970160961151,
        0.022959118708968163,
        0.07718341052532196
      ],
      "min": [
        -0.04275970533490181,
        -0.022959118708968163,
        -0.07718341052532196
      ],
      "type": "VEC3"
    },
    {
      "bufferView": 2,
      "byteOffset": 214596,
      "componentType": 5126,
      "count": 17883,
      "max": [
        0.9998133182525635,
        0.9999997615814209,
        0.9996316432952881
      ],
      "min": [
        -0.9996939897537231,
        -0.9871436953544617,
        -0.9999768137931824
      ],
      "type": "VEC3"
    },
    {
      "bufferView": 1,
      "componentType": 5126,
      "count": 17883,
      "max": [
        0.9998984336853027,
        0.9840752482414246
      ],
      "min": [
        4.2150011722696945e-05,
        1.705678914731834e-05
      ],
      "type": "VEC2"
    },
    {
      "bufferView": 1,
      "byteOffset": 143064,
      "componentType": 5126,
      "count": 17883,
      "max": [
        0.9998984336853027,
        0.9840752482414246
      ],
      "min": [
        4.2150011722696945e-05,
        1.705678914731834e-05
      ],
      "type": "VEC2"
    },
    {
      "bufferView": 1,
      "byteOffset": 286128,
      "componentType": 5126,
      "count": 17883,
      "max": [
        0.9998984336853027,
        0.9840752482414246
      ],
      "min": [
        4.2150011722696945e-05,
        1.705678914731834e-05
      ],
      "type": "VEC2"
    },
    {
      "bufferView": 1,
      "byteOffset": 429192,
      "componentType": 5126,
      "count": 17883,
      "max": [
        0.9998984336853027,
        0.9840752482414246
      ],
      "min": [
        4.2150011722696945e-05,
        1.705678914731834e-05
      ],
      "type": "VEC2"
    },
    {
      "bufferView": 1,
      "byteOffset": 572256,
      "componentType": 5126,
      "count": 17883,
      "max": [
        0.9998984336853027,
        0.9840752482414246
      ],
      "min": [
        4.2150011722696945e-05,
        1.705678914731834e-05
      ],
      "type": "VEC2"
    },
    {
      "bufferView": 0,
      "componentType": 5125,
      "count": 97425,
      "type": "SCALAR"
    }
  ],
  "asset": {
    "extras": {
      "author": "thuberchs (https://sketchfab.com/thuberchs)",
      "license": "CC-BY-NC-SA-4.0 (http://creativecommons.org/licenses/by-nc-sa/4.0/)",
      "source": "https://sketchfab.com/3d-models/sandwich-8e8b342613f0477182ec8586876291cf",
      "title": "Sandwich"
    },
    "generator": "Sketchfab-13.17.0",
    "version": "2.0"
  },
  "bufferViews": [
    {
      "buffer": 0,
      "byteLength": 389700,
      "name": "floatBufferViews",
      "target": 34963
    },
    {
      "buffer": 0,
      "byteLength": 715320,
      "byteOffset": 389700,
      "byteStride": 8,
      "name": "floatBufferViews",
      "target": 34962
    },
    {
      "buffer": 0,
      "byteLength": 429192,
      "byteOffset": 1105020,
      "byteStride": 12,
      "name": "floatBufferViews",
      "target": 34962
    }
  ],
  "buffers": [
    {
      "byteLength": 1534212,
      "uri": "scene.bin"
    }
  ],
  "extensionsUsed": [
    "KHR_materials_unlit"
  ],
  "images": [
    {
      "uri": "textures/material_0_baseColor.jpeg"
    }
  ],
  "materials": [
    {
      "extensions": {
        "KHR_materials_unlit": {}
      },
      "name": "material_0",
      "pbrMetallicRoughness": {
        "baseColorTexture": {
          "index": 0
        },
        "metallicFactor": 0.0
      }
    }
  ],
  "meshes": [
    {
      "name": "Object_0",
      "primitives": [
        {
          "attributes": {
            "NORMAL": 1,
            "POSITION": 0,
            "TEXCOORD_0": 2,
            "TEXCOORD_1": 3,
            "TEXCOORD_2": 4,
            "TEXCOORD_3": 5,
            "TEXCOORD_4": 6
          },
          "indices": 7,
          "material": 0,
          "mode": 4
        }
      ]
    }
  ],
  "nodes": [
    {
      "children": [
        1
      ],
      "matrix": [
        1.0,
        0.0,
        0.0,
        0.0,
        0.0,
        2.220446049250313e-16,
        -1.0,
        0.0,
        0.0,
        1.0,
        2.220446049250313e-16,
        0.0,
        0.0,
        0.0,
        0.0,
        1.0
      ],
      "name": "Sketchfab_model"
    },
    {
      "children": [
        2
      ],
      "name": "root"
    },
    {
      "children": [
        3
      ],
      "matrix": [
        1.0,
        0.0,
        0.0,
        0.0,
        0.0,
        2.220446049250313e-16,
        1.0,
        0.0,
        0.0,
        -1.0,
        2.220446049250313e-16,
        0.0,
        0.0,
        0.0,
        0.0,
        1.0
      ],
      "name": "GLTF_SceneRootNode"
    },
    {
      "children": [
        4
      ],
      "name": "_0"
    },
    {
      "mesh": 0,
      "name": "Object_4"
    }
  ],
  "samplers": [
    {
      "magFilter": 9729,
      "minFilter": 9987,
      "wrapS": 10497,
      "wrapT": 10497
    }
  ],
  "scene": 0,
  "scenes": [
    {
      "name": "Sketchfab_Scene",
      "nodes": [
        0
      ]
    }
  ],
  "textures": [
    {
      "sampler": 0,
      "source": 0
    }
  ]
}
