{
  "accessors": [
    {
      "bufferView": 2,
      "componentType": 5126,
      "count": 65532,
      "max": [
        91.70242309570313,
        -331.0367431640625,
        140.8548126220703
      ],
      "min": [
        -23.990413665771484,
        -448.65380859375,
        53.23451232910156
      ],
      "type": "VEC3"
    },
    {
      "bufferView": 2,
      "byteOffset": 786384,
      "componentType": 5126,
      "count": 65532,
      "max": [
        0.9999415874481201,
        0.9992238283157349,
        0.9999081492424011
      ],
      "min": [
        -0.9998351335525513,
        -0.9999523758888245,
        -0.9998872876167297
      ],
      "type": "VEC3"
    },
    {
      "bufferView": 1,
      "componentType": 5126,
      "count": 65532,
      "max": [
        0.997497022151947,
        0.9959319829940796
      ],
      "min": [
        0.0033515701070427895,
        0.005433559883385897
      ],
      "type": "VEC2"
    },
    {
      "bufferView": 0,
      "componentType": 5125,
      "count": 353247,
      "type": "SCALAR"
    },
    {
      "bufferView": 2,
      "byteOffset": 1572768,
      "componentType": 5126,
      "count": 27113,
      "max": [
        91.70242309570313,
        -331.1513671875,
        140.6873321533203
      ],
      "min": [
        -23.990413665771484,
        -448.65380859375,
        53.23451232910156
      ],
      "type": "VEC3"
    },
    {
      "bufferView": 2,
      "byteOffset": 1898124,
      "componentType": 5126,
      "count": 27113,
      "max": [
        0.9999415874481201,
        0.9992238283157349,
        0.9999081492424011
      ],
      "min": [
        -0.9998351335525513,
        -0.9999523758888245,
        -0.9997861981391907
      ],
      "type": "VEC3"
    },
    {
      "bufferView": 1,
      "byteOffset": 524256,
      "componentType": 5126,
      "count": 27113,
      "max": [
        0.99788898229599,
        0.9994760155677795
      ],
      "min": [
        0.0006846190080977976,
        0.0022632500622421503
      ],
      "type": "VEC2"
    },
    {
      "bufferView": 0,
      "byteOffset": 1412988,
      "componentType": 5125,
      "count": 96873,
      "type": "SCALAR"
    }
  ],
  "asset": {
    "extras": {
      "author": "yuta (https://sketchfab.com/yuanzhengyang)",
      "license": "CC-BY-4.0 (http://creativecommons.org/licenses/by/4.0/)",
      "source": "https://sketchfab.com/3d-models/whiteboard-eraser-495193cc6b234e20973c9e8192ae6be1",
      "title": "Whiteboard Eraser"
    },
    "generator": "Sketchfab-12.68.0",
    "version": "2.0"
  },
  "bufferViews": [
    {
      "buffer": 0,
      "byteLength": 1800480,
      "name": "floatBufferViews",
      "target": 34963
    },
    {
      "buffer": 0,
      "byteLength": 741160,
      "byteOffset": 1800480,
      "byteStride": 8,
      "name": "floatBufferViews",
      "target": 34962
    },
    {
      "buffer": 0,
      "byteLength": 2223480,
      "byteOffset": 2541640,
      "byteStride": 12,
      "name": "floatBufferViews",
      "target": 34962
    }
  ],
  "buffers": [
    {
      "byteLength": 4765120,
      "uri": "scene.bin"
    }
  ],
  "images": [
    {
      "uri": "textures/material_baseColor.png"
    }
  ],
  "materials": [
    {
      "doubleSided": true,
      "name": "material",
      "pbrMetallicRoughness": {
        "baseColorTexture": {
          "index": 0
        },
        "metallicFactor": 0.0
      }
    }
  ],
  "meshes": [
    {
      "name": "Object_0",
      "primitives": [
        {
          "attributes": {
            "NORMAL": 1,
            "POSITION": 0,
            "TEXCOORD_0": 2
          },
          "indices": 3,
          "material": 0,
          "mode": 4
        }
      ]
    },
    {
      "name": "Object_1",
      "primitives": [
        {
          "attributes": {
            "NORMAL": 5,
            "POSITION": 4,
            "TEXCOORD_0": 6
          },
          "indices": 7,
          "material": 0,
          "mode": 4
        }
      ]
    }
  ],
  "nodes": [
    {
      "children": [
        1
      ],
      "matrix": [
        1.0,
        0.0,
        0.0,
        0.0,
        0.0,
        2.220446049250313e-16,
        -1.0,
        0.0,
        0.0,
        1.0,
        2.220446049250313e-16,
        0.0,
        0.0,
        0.0,
        0.0,
        1.0
      ],
      "name": "Sketchfab_model"
    },
    {
      "children": [
        2,
        3
      ],
      "name": "Yuta_Eraser_Mesh.obj.cleaner.materialmerger.gles"
    },
    {
      "mesh": 0,
      "name": "Object_2"
    },
    {
      "mesh": 1,
      "name": "Object_3"
    }
  ],
  "samplers": [
    {
      "magFilter": 9729,
      "minFilter": 9987,
      "wrapS": 10497,
      "wrapT": 10497
    }
  ],
  "scene": 0,
  "scenes": [
    {
      "name": "Sketchfab_Scene",
      "nodes": [
        0
      ]
    }
  ],
  "textures": [
    {
      "sampler": 0,
      "source": 0
    }
  ]
}
